<svg xmlns="http://www.w3.org/2000/svg" viewBox="0 0 151.278 259.265"><defs><style>.cls-1{fill:#f79967;}.cls-2{fill:#cd5248;}.cls-3{fill:#474761;}.cls-4{fill:#d9a886;}.cls-5{fill:#71667f;}.cls-6{fill:#bd8fa7;}</style></defs><title>Bird</title><g id="Layer_2" data-name="Layer 2"><g id="Capa_3" data-name="Capa 3"><path class="cls-1" d="M91.333,8.716A4.128,4.128,0,0,0,88.367,5.75l-.089-.013a4.7,4.7,0,0,0-.8-.722C80.329,0,66.533,6.8,59.7,10.265,49.5,15.441,38.14,21.04,29.427,28.53c-4.972,4.275-39.437,36.8-23.839,41.275,2.99.859,6.314-.735,8.892-2.078,4.9-2.552,9.822-5.446,14.442-8.47,9.658-6.322,21.275-8.833,32.54-11.4,8.951-2.045,17.133.371,21.956-9.179C87.867,29.864,93.75,18.735,91.333,8.716Z"/><path class="cls-2" d="M78.258,36.408a6.85,6.85,0,0,0-2-1.126,2.5,2.5,0,0,0-1.075-.446c-7.6-1.114-15.255,2.44-22.251,5.038-7.967,2.958-15.713,6.154-23.435,9.7-6.743,3.1-12.717,7.124-19.168,10.708-2.989,1.661-8.1,5.937-3.148,8.99a4.662,4.662,0,0,0,1.075.48A3.266,3.266,0,0,0,11,70.162c.337-.089.672-.2,1.008-.3a36.446,36.446,0,0,0,4.016-.981,131.52,131.52,0,0,0,12.925-4.539c2.988-1.178,6-2.361,8.907-3.719a121.384,121.384,0,0,1,22.119-8.14c4.513-1.141,8.675-2.962,13.083-4.39,2.676-.868,5.86-1.563,7.132-4.415A6.229,6.229,0,0,0,78.258,36.408Z"/><path class="cls-3" d="M127.356,238.079c.038-7.894.051-15.188-1.288-22.993-1.4-8.176-3.07-16.628-3.954-24.858-.59-5.492-.609-11.317-1.861-16.719-1.079-4.654-3.586-7.87-8.385-8.9-6.069-1.3-13.438-1.058-19.7-1.325a3.873,3.873,0,0,0-5.548.211c-3.051,3.16-3.892,6.973-5.37,11a100.152,100.152,0,0,0-5.07,18.461c-2.042,12.365-4.344,24.83-5.646,37.295-.829,7.932-.486,21.81,8.409,25.687,5.355,2.335,9.311-.782,12.529-4.654.633,1.909,1.234,4.02,2.274,5.121,1.925,2.039,4.453,3.371,7.319,2.676,3.5-.849,5.092-3.85,6.6-6.871.551-1.1,1.326-4.984,2.105-7.79,4.77,5.225,11.546,13.27,16.464,4.714C128.1,245.886,127.34,241.643,127.356,238.079Z"/><path class="cls-4" d="M114.458,151.415c-3.185-4.444-7.957-12.268-14.556-9.248-7.044,3.223-8.774,13.947-13.578,19.312a4.378,4.378,0,0,0,.994,6.644,6.358,6.358,0,0,0,4.4,6.412c2.407.933,5.089.77,7.615.66a52.27,52.27,0,0,1,9.127.679c5.344.684,13.6.55,15-6.1C124.785,163.546,117.722,155.967,114.458,151.415Zm.221,15.993c-.076.275-1.121.342-2.627.3a4.363,4.363,0,0,0,1.937-2.292A4.249,4.249,0,0,1,114.679,167.408Z"/><path class="cls-3" d="M135.405,56.544c-.391-4.676-3.56-8.291-3.855-12.832-.312-4.806,2.321-9.274,1.665-14.107a37.745,37.745,0,0,0-4.31-11.869c-7.082-13.21-25.941-24.493-39.517-12.93-6.552,5.581-10.4,17.068-10.059,25.434.141,3.521.456,5.862-1.1,9.321-.922,2.054-2.26,3.906-3,6.056-2.089,6.061-.376,12.287.01,18.465a4.178,4.178,0,0,0,1.123,2.667,4.659,4.659,0,0,0,.043.49c2.1,11.2,7.648,19.093,13.652,28.362,3.6,5.56,8.891,12.68,16.2,12.95,7.988.294,14.6-7.1,18.874-12.959,2.427-3.324,5.205-6.824,6.94-10.56,1.936-4.169,2.377-9.467,2.956-13.975A70.766,70.766,0,0,0,135.405,56.544Z"/><path class="cls-5" d="M146.113,70.293c-1.426-5.216-2.189-12.56-6.9-15.958-5.123-3.691-10.256.694-13.434,4.761C119.537,67.078,115.506,77.405,111.4,86.6c-1.154,2.583-2.251,5.19-3.243,7.828-.3-1.526-.592-3.044-.873-4.542a56.982,56.982,0,0,0-11.2-24.84c-2.706-3.558-5.592-6.964-8.123-10.65-1.655-2.41-2.951-4.656-5.966-5.475-6.253-1.7-10.874,5.421-13.851,9.831-11.317,16.768-9.894,35.357-6.68,54.321a119.71,119.71,0,0,0,8.076,28.241c4.149,9.454,10.611,17.375,15.49,26.359a3.754,3.754,0,0,0,2.731,2.045c1.607,1.017,3.737,1.148,5.1-.56,3.661-4.595,7.507-9.47,10.8-14.339a33.82,33.82,0,0,0,2.428-4.36c2.074,11.237,6.182,24.111,14.142,21.816,2.893-.833,4.614-3.539,6.565-5.619,3.367-3.589,7.118-6.809,10.248-10.619a46.97,46.97,0,0,0,10.165-22.493c1.734-10.542,3.8-21.359,4.055-32.063C151.518,90.82,148.9,80.5,146.113,70.293Z"/><path class="cls-4" d="M112.61,22.377c-1.5-4.356-5.678-7.4-9.2-10.019-3.361-2.5-6.573-5.4-10.317-7.252A4.383,4.383,0,0,0,89.815,3.6c-.22.015-.427.046-.637.073h0a4.081,4.081,0,0,0-4.771,2.265,16.8,16.8,0,0,0-3.742,6.772,50.643,50.643,0,0,0-2.311,9c-.442,3.136-1.688,7.186-.824,10.276-.114.925-.2,1.838-.237,2.715-.453,11.359,13.279,6.4,19.321,3.951C102.908,36.1,115.656,31.24,112.61,22.377Z"/><path class="cls-3" d="M89.292,2.445a3.761,3.761,0,0,0-2.907-.454c-2.124-.76-4.681-.077-5.263,2.756-.56,2.726-1.808,5.118-2.767,7.7-1.164,3.133-1.521,6.4-2.28,9.625C74.918,27,73.9,32.666,74.655,37.7c.568,3.768,6.063,3.907,7.762,1.015,4.117-7.006,5.371-14.9,8.044-22.5C92.108,11.535,94.49,5.662,89.292,2.445Z"/><path class="cls-3" d="M103.3,15.16a4.53,4.53,0,0,0-4.095-3.118,5.068,5.068,0,0,0-4.278,1.819,3.9,3.9,0,0,0-1.681,3.107c-.009.025-.02.051-.03.077-.087.235-.171.473-.251.711a1.375,1.375,0,0,0-.094.132,3.767,3.767,0,0,0-.488,3.3,15.858,15.858,0,0,0-.237,1.993c-.173,3.616,2.265,6.848,6.1,6.681a4.328,4.328,0,0,0,4.095-3.118C103.118,22.91,104.784,19.056,103.3,15.16Z"/><path class="cls-3" d="M22.956,43.991A5.713,5.713,0,0,0,22.48,41.9c-2.259-5.3-8.251-2.687-10.976.524a42.907,42.907,0,0,0-4.566,7.319,54.617,54.617,0,0,0-3.259,5.218C.789,60.042-2.042,65.32,2.043,70.531,3.194,72,5.7,72.046,7.189,71.195c2.452-1.4,3.808-3.943,5.8-5.871a60.708,60.708,0,0,0,7.039-7.371C23.191,53.659,24.778,48.687,22.956,43.991Z"/><path class="cls-6" d="M84.445,82.917c-.025-4.5-7.025-4.512-7,0,.018,3.193.937,6.5.125,9.643-1.127,4.365,5.623,6.226,6.75,1.861C85.325,90.531,84.467,86.842,84.445,82.917Z"/><path class="cls-6" d="M73.747,113.707a3.532,3.532,0,0,0-4.305-2.445A3.578,3.578,0,0,0,67,115.568c.293,1.618.861,3.515,1.05,4.943.248,1.874,1.431,3.5,3.5,3.5,1.7,0,3.749-1.612,3.5-3.5C74.743,118.207,74.16,115.989,73.747,113.707Z"/><path class="cls-6" d="M85.669,116.987v8.224c0,4.5,7,4.511,7,0v-8.224C92.669,112.483,85.669,112.475,85.669,116.987Z"/><path class="cls-6" d="M87.845,145.427c-.191-.737-.464-1.441-.71-2.16-.113-.33-.192-.669-.3-1-.012-.063-.019-.1-.028-.139-.008-.157-.017-.314-.011-.472a3.5,3.5,0,0,0-7,0c-.013,2.03.8,3.719,1.3,5.63a3.5,3.5,0,0,0,6.75-1.861Z"/><path class="cls-6" d="M120.889,98.214a3.546,3.546,0,0,0-3.5,3.5v5.874a3.5,3.5,0,0,0,7,0v-5.874A3.555,3.555,0,0,0,120.889,98.214Z"/><path class="cls-6" d="M142.011,97.015a3.5,3.5,0,0,0-7,0c.018.863.093,1.727.064,2.591,0,.1-.011.192-.017.287-.012.048-.031.126-.06.27l-.034.105c-.2.334-.234.384-.1.146a3.576,3.576,0,0,0,0,4.95,3.535,3.535,0,0,0,4.949,0C142.047,102.9,142.077,100.148,142.011,97.015Z"/><path class="cls-6" d="M128.868,127.71c-1.657-.378-4.025.506-4.3,2.444-.233,1.608-.942,3.092-1.175,4.7-.261,1.8.444,3.85,2.445,4.306,1.657.377,4.025-.507,4.305-2.445.233-1.608.942-3.091,1.175-4.7C131.574,130.211,130.869,128.165,128.868,127.71Z"/></g></g></svg>