<svg xmlns="http://www.w3.org/2000/svg" viewBox="0 0 378.788 340.347"><defs><style>.cls-1{fill:#f79967;}.cls-2{fill:#fab896;}.cls-3{fill:#cd5248;}.cls-4{fill:#323346;}</style></defs><title>Camel</title><g id="Layer_2" data-name="Layer 2"><g id="Capa_3" data-name="Capa 3"><path class="cls-1" d="M370.787,255.485c.013-.033.029-.061.042-.094,2.853-7.173,1.989-15.728,1.718-23.258A149.7,149.7,0,0,0,369,204.911a131.213,131.213,0,0,0-8.588-25.384c-3.329-7.365-9.447-12.785-14.852-18.624a2.55,2.55,0,0,0-.77-.572,158.85,158.85,0,0,0-3.474-26.6c-4.834-21.209-16.548-46.6-40.918-49.368a27.671,27.671,0,0,0-27.055,12.692c-5.105,7.838-13.3,32.612-26.089,29.164-7.239-1.951-9.963-12.658-12.409-18.707-2.1-5.192-4.1-10.7-7.608-15.137-7-8.848-17.571-7.091-26.923-3-22.067,9.652-24.093,40.6-33.714,59.8-3.139,6.265-7.291,12.1-13.562,15.528a65.723,65.723,0,0,1-11.223,5.136c-4.334,1.368-9.176,1.1-13.69.959-10.07-.316-16.625-4.329-22.295-12.6a54.387,54.387,0,0,1-5.231-10.208c-.861-2.087-2.106-4.29-2.986-6.531a2.5,2.5,0,0,0-.1-1.048c1.675-2.839,3.814-5.268,5.006-8.523,1.618-4.417,1.89-9.044,2.979-13.583,1.026-4.272,1.543-7.3.984-11.606-1-7.693,3.7-8.443,7.669-12.822,4.947-5.452,7.02-15.436,8.1-22.391a27.83,27.83,0,0,0-.121-10.938c-.819-3.582-1.592-5.75.191-9.282,1.059-2.1,2.947-3.816,4.456-5.595,4.675-5.513,9.25-12.1,8.808-19.611-.322-5.477-2.029-13.291-8.271-14.773-5.365-1.273-10.852,2.856-14.563,6.2a37.136,37.136,0,0,0-6.9,8.817,81.109,81.109,0,0,0-4.118,8.859C100.173,33.635,99.09,31.6,97.547,30a44.645,44.645,0,0,0-7.967-6.117,49.529,49.529,0,0,0-19.874-7.669c-11.477-1.57-29.352,1.077-37.543,10.676-3.87-2.227-7.418-9.609-9.3-12.776C20.791,10.63,19.2,6.719,16.25,3.841c-3.785-3.7-10.84-6.018-14.379-.8C-1.137,7.481.134,14.417,1.205,19.275a44.008,44.008,0,0,0,12.547,23c-1.42,4.316-3.835,8.1-4.446,12.822-.714,5.52,1.37,11.236,3.248,16.355a14.378,14.378,0,0,0,2.437,4.53c2.645,3.108,3.806,3.114,3.4,7.749-.48,5.457-1.81,11.461-1.349,16.958,1.563,18.648,8.738,41.548,29.749,44.071.789,25.673,20.428,47.985,41.356,60.735a163.536,163.536,0,0,0,38.979,17.058,131.555,131.555,0,0,0,20.6,4.191c7.472.962,14.368.1,21.749-.319.333,9.841,1.691,19.669,1.04,29.518-.686,10.37-1.327,20.9-2.6,31.213-1.188,9.645-4.717,18.913-5.61,28.573-.34,3.671-.224,8.441,4.3,9.272,5.331.981,9.364-4.811,11.026-9.012,1.617-4.086,1.967-8.6,2.776-12.877.866-4.581,1.982-9.073,2.615-13.7,1.318-9.632.464-19.339,1.429-28.986.517-5.173,1.58-10.32,2.612-15.412.389-1.919.393-4.975,2.41-6.078,1.526-.835,5.795-.156,8.109-.008-.641,1.358-2.075,25.53-1.985,27.771.422,10.508-.98,20.762-.978,31.248,0,9.5-.7,19.049-.483,28.543.093,4.025-.294,12.965,5.406,13.8,5.016.74,9.539-7.309,11.359-10.858,3.931-7.666,5.751-16.328,7.119-24.771,1.756-10.84,2.5-21.831,3.767-32.734a114.043,114.043,0,0,0,.966-15.94c-.1-4.17-1.46-8.486-1.409-12.66,5.725.927,11.195,2.633,17.087,3.071,8.086.6,16.2.677,24.31.554a140.3,140.3,0,0,0,18.808-1.533c4.207-.632,8.45-.9,12.689-1.19.343,2.336.711,4.669.89,7.043a104.907,104.907,0,0,1-.3,14.39c-.616,9.912-.839,19.7-3.4,29.369-1.334,5.029-12.786,34.251-.609,34.517,5,.109,7.911-5.668,9.473-9.546,3.356-8.334,6.588-16.957,8.5-25.746,2.036-9.386,3.9-18.938,5.3-28.442.733-5,1.118-10.031,1.869-15.026.491-3.264.323-6.991,1.037-10.346,4.378-.851,8.521-1.08,9.528,1.1.812,1.756-.124,6.708-.276,8.621a95.132,95.132,0,0,1-2.39,13.946c-1.485,6.4-3.4,12.814-4.057,19.374-.73,7.264-1.39,14.757-2.72,21.961-1.123,6.08-8.374,26,1.823,28.786,9.867,2.695,14.305-17.57,15.887-23.313,3.934-14.278,7.364-28.792,8.733-43.572a176.733,176.733,0,0,0,.528-20.6c-.195-8.1,1.236-15.946,1.311-24.033.142-15.294.049-30.619-.085-45.913q-.039-4.473-.168-8.957c2.523,2.646,5.043,5.284,7.347,8.148,3.589,4.463,5.48,10.349,7.413,15.664a131.082,131.082,0,0,1,7.2,33.575c.871,10.32,2.356,22.43-2.927,31.677-4.086,7.15-2,14.062-.674,21.873.623,3.681,3.72,13.523,9.263,9.7,3.013-2.08,3.144-8.926,3.525-12.07C376.868,271.181,378.44,256.278,370.787,255.485Z"/><path class="cls-2" d="M92.6,106.56c-2.375-9.46-5.34-18.89-10.883-26.992-2.513-3.674-4.425-6.642-8.174-9.3A15.144,15.144,0,0,0,64.7,67.492C51.66,64.36,43.023,83.923,39.46,93.44a85.643,85.643,0,0,0-5.085,27.939c-.026,6.465,1.337,13.128,8,15.8a12.216,12.216,0,0,0,8.364.323c1.307-.194,2.62-.458,3.877-.672a2.28,2.28,0,0,0,1.144.105c6.365-1.02,14.316,2.707,21.248,2.779a18.144,18.144,0,0,0,3.092.919,11.953,11.953,0,0,0,13.46-7.941C96.308,124.6,94.632,114.642,92.6,106.56Z"/><path class="cls-3" d="M79.4,69.705c-2.615-3.636-10.766-4.238-14.813-4.447-4.291-.221-12.179-.729-13.779,4.894-.808,2.839,1.544,6.376,2.65,8.812,1.383,3.047,3.162,6,4.693,8.992,1.628,3.186,4.24,5.623,7.117,5.677,4.325,2.045,8.325-2.983,10.3-6.564C78,82.675,82.984,74.687,79.4,69.705Z"/><path class="cls-4" d="M79.671,81.478a2.212,2.212,0,0,0-2.991-.784c-3.741,2.045-6.159,5.916-8.95,9.022a7.037,7.037,0,0,1-1.105,1.031c-1.16-4.061-6.358-9.714-9.713-11.8a2.2,2.2,0,0,0-2.65.342c-4.146,5.255,4.234,12.534,8.1,15.4a7.53,7.53,0,0,0,1.542.894c-.563,4.09,0,8.905-.141,12.825-.182,5.05-.739,10.752.109,15.745.336,1.98,3.066,1.961,4,.522,2.457-3.8,2.29-9.43,2.282-13.8-.01-5.257-.5-10.269-.763-15.465C75.385,93.49,82.3,87.654,79.671,81.478Z"/><path class="cls-4" d="M35.406,55.583c-.4-2.166-2.036-4.395-4.513-3.883-2.124.44-3.3,2.79-3.622,4.727-.052.311-.108.688-.162,1.1A11.375,11.375,0,0,0,27,62.587a5.886,5.886,0,0,0,1.3,3.342,9.418,9.418,0,0,0,.777,1.082,2.19,2.19,0,0,0,2.649.342c1.873-1.263,2.468-3.25,3-5.345A15.21,15.21,0,0,0,35.406,55.583Z"/><path class="cls-4" d="M105.924,62.7c-.3-2.343-2.066-4.039-4.525-3.328-2.442.705-3.2,2.743-3.653,4.93-1.6,4.188-2.168,10.728,1.952,11.61C105.334,77.12,106.365,66.14,105.924,62.7Z"/><path class="cls-3" d="M22.013,33.667a5.838,5.838,0,0,0-1.785-3.812,29.08,29.08,0,0,1-4.393-6.118c-1.366-2.646-2.665-8.2-6.2-8.76A2.246,2.246,0,0,0,6.94,16.5c-.923,3.234,1,5.9,2.574,8.569A44.991,44.991,0,0,0,17.2,35.286a2.2,2.2,0,0,0,.92.529,2.316,2.316,0,0,0,.832.123l.37-.011a2.41,2.41,0,0,0,.533-.078A2.223,2.223,0,0,0,22.013,33.667Z"/><path class="cls-3" d="M128.572,19.736C125.554,18.2,122.78,22,121.28,24.05c-3.29,4.49-5.246,9.829-9.112,13.9a2.048,2.048,0,0,0-.418,2.329,2.368,2.368,0,0,0,1.033,2.453c3.6,2.258,5.952-2.32,8.162-4.524,2.6-2.595,5.676-6.072,6.986-9.77C130.485,24.708,131.6,21.279,128.572,19.736Z"/><path class="cls-3" d="M378.538,265.118c-.419-5.338-3.378-18.6-11.658-13.089a2.192,2.192,0,0,0-.77.871c-2.941,2.067-5.265,3.693-6.195,7.719-1.166,5.045.856,10.94,2.333,15.692,1.08,3.476,6.075,19.159,12.006,15.045,2.313-1.605,3.1-6.227,3.546-8.7A67.755,67.755,0,0,0,378.538,265.118Z"/></g></g></svg>