<svg xmlns="http://www.w3.org/2000/svg" viewBox="0 0 148.807 279.001"><defs><style>.cls-1{fill:#323346;}.cls-2{fill:#474761;}.cls-3{fill:#71667f;}.cls-4{fill:#d9a886;}.cls-5{fill:#f79967;}</style></defs><title>Duck</title><g id="Layer_2" data-name="Layer 2"><g id="Capa_3" data-name="Capa 3"><path class="cls-1" d="M50.4,235.055c0-4.541-7.057-4.549-7.057,0,0,3.133.734,8.007.387,11.987-3.141.265-6.192,1.2-9.337,1.532a32.1,32.1,0,0,0-4.121.567c-1.2.287-2.636,1.163-3.878,1.191-4.535.1-4.551,7.161,0,7.058a14.337,14.337,0,0,0,3.648-.683c-.815.7-1.616,1.425-2.382,2.181-3.238,3.2,1.753,8.185,4.99,4.99a46.666,46.666,0,0,1,5.052-4.3c-.324.68-.635,1.378-.92,2.123-1.622,4.246,5.2,6.083,6.805,1.876a23,23,0,0,1,3.226-6.165c1.452-1.819,2.987-2.918,3.563-5.272C51.619,247.07,50.4,240.254,50.4,235.055Z"/><path class="cls-1" d="M81.62,261.281a3.655,3.655,0,0,0-.172-.637,21.336,21.336,0,0,0-.278-4.672c-.358-4.079-.591-8.076-1.095-12.141-.552-4.448-7.617-4.5-7.058,0,.375,3.018.823,5.945.936,8.994.046,1.234.469,3.144.587,4.81-.556.114-1.076.231-1.237.253-2.041.286-4.058.567-6.085.945a26.439,26.439,0,0,0-8.086,2.41,2.773,2.773,0,0,0-2.7,2.546l-.04.252c-.424,2.713,2.375,5.922,5.184,3.985a17.11,17.11,0,0,1,6.846-2.384c-1.191,1.367-2.393,2.724-3.56,4.112a3.624,3.624,0,0,0,0,4.99,3.558,3.558,0,0,0,4.99,0c1.631-1.94,3.316-3.834,4.976-5.749l.007-.007a65.648,65.648,0,0,0-.559,6.6c.007,4.541,7.065,4.549,7.057,0C81.321,270.73,82.425,266.147,81.62,261.281Z"/><path class="cls-2" d="M115.085,234.407a110.2,110.2,0,0,0-6.558-23.741c-2.369-6.212-4.668-13.481-8.483-19-3.26-4.716-9.108-6.5-13.706-2.367-5.025,4.518-4.679,11.751-3.254,17.755.419,1.763.832,3.929,1.317,6.269,1.089,13.885,5.127,29.313,13.5,39.928,3.721,4.72,10.138,7.382,14.414,1.643C116.424,249.37,115.985,240.824,115.085,234.407Z"/><path class="cls-3" d="M35.87,115.118c4-5.468-3.852-12.944-8.864-7.652-9.991,10.549-15.385,24.145-18.57,38.141-1.676,7.366-4.159,14.628-5.19,22.121-.968,7.034-2.571,14.653-1.038,21.665.9,4.137,7.007,5.917,9.83,2.595,8.671-10.2,8.825-27.022,10.688-39.577a99.954,99.954,0,0,1,5.987-21.46c1.825-4.8,5.531-8.837,6.767-13.772a6.217,6.217,0,0,0,.389-2.026Z"/><path class="cls-2" d="M30.445,113.884c-.5.588-.986,1.151-1.466,1.7a6.1,6.1,0,0,0-5.245,2.479c-7.4,9.752-7,23.355-9.113,34.879-1.27,6.93-.234,13.287,0,20.26.215,6.279-.577,12.033,2.289,17.827,1.15,2.323,4.255,3.337,6.642,2.7,10.275-2.729,10.143-18.82,11.553-27.2,1.486-8.834,1.728-17.331,1.951-26.25a49.473,49.473,0,0,1,1.366-11.543c.945-3.563,2.138-6.961,2.057-10.7C40.383,113.312,33.886,109.812,30.445,113.884Z"/><path class="cls-4" d="M99.374,171.13a88.7,88.7,0,0,0-1.75-14.89c-1.506-8.558-4.886-16.86-11.653-22.605-6.8-5.774-15.576-10.455-23.786-13.874-4.367-1.819-9.115-3.708-13.876-4.106-4.581-.382-8.714,1.559-13.21,1.85a6.626,6.626,0,0,0-1.556.3,5.449,5.449,0,0,0-4.731,5.579c-.022,8.069-1.486,15.928-1.976,23.952-.469,7.691.694,15.5.955,23.194a252.564,252.564,0,0,0,5.6,45.448c1.354,6.21,4.408,11.775,7.066,17.512,2.176,4.7,6.451,8.174,11.888,7.6,4.477-.476,7.461-3.688,9.446-7.434a45.2,45.2,0,0,0,5.181,9.486c5,6.913,13.591,10.227,20.829,4.177,6.756-5.648,7.895-15.368,9.069-23.519,1.72-11.94.943-23.744,1.224-35.748C98.223,182.392,99.386,176.784,99.374,171.13Z"/><path class="cls-3" d="M147.117,217.558c-2.179-7.384-4.385-14.589-6.21-22.082-.854-3.509-1.958-6.906-2.951-10.368-1.134-3.953-1.47-8.017-2.91-11.89-2.731-7.341-5.881-14.584-8.844-21.839a371.86,371.86,0,0,0-20.18-41.62C101.142,101.08,92.032,83.7,79.473,89.6c-9.151,4.3-15.135,18.432-16.883,27.684-1.293,6.842-.061,13.909,2.229,20.755,2.034,12.08,8.051,24.008,13.264,34.684,3.272,6.7,7.111,13.149,10.725,19.674,3.938,7.113,9.235,13.37,13.1,20.465,6.364,11.692,10.738,24.287,22.477,31.894,4.138,2.68,9.742,5.539,14.785,4.116,6.254-1.765,8.471-8.59,9.26-14.305A40.094,40.094,0,0,0,147.117,217.558Z"/><path class="cls-5" d="M98.3,98.991c-1.856-5.393-7.132-9.642-12.964-11.852,2.116-2.361,3.157-5.28,1.659-8.349-1.9-3.9-6.905-5.141-10.853-5.4a41.075,41.075,0,0,0-8.594.427,7.763,7.763,0,0,0-2.085-4.624c-2.665-2.969-6.956-3.372-10.654-2.732a21.157,21.157,0,0,0-10.9,5.455,32.2,32.2,0,0,0-4.215,4.947,12.424,12.424,0,0,0-1.006,2.052,3.522,3.522,0,0,0-1-.359c-7.207-1.385-17.223-7.992-23.434-.031a6.753,6.753,0,0,0,.2,8.859c1.509,1.745,3.9,3.063,5.782,4.443a2.888,2.888,0,0,0-.389.014,12.9,12.9,0,0,0-5.157,1.979,31.6,31.6,0,0,0-9.5,9.62c-1.617,2.643-1.873,5.518.669,7.627,2.458,2.039,5.639,2.259,8.805,1.985a13.813,13.813,0,0,0-1.4,2.04,27.827,27.827,0,0,0-2.655,10.264c-.073,5.089,3.643,8.753,8.835,7.645,3.349-.715,5.358-3.05,7.429-5.427a32.3,32.3,0,0,0,1.26,4.925c1.325,4.05,3.746,8.846,8.8,7.953,4.325-.763,7.238-5.479,9.308-8.924,1.176-1.957,2.2-4,3.263-6.011a17.253,17.253,0,0,0,.954-1.738c.454,1.576,1.142,3.352,1.416,4.2a25.131,25.131,0,0,0,2.882,5.936c2.629,3.988,7.58,7.2,11.451,2.712,1.967-2.279,2.657-5.458,3.085-8.35a29.977,29.977,0,0,0-.139-4.931c3.223,3.154,6.264,6.59,11.372,3.909,3.121-1.637,4.662-5.2,5.018-8.568.281-2.659-.808-4.978-1.715-7.285,3.384.991,6.769,1.435,10.226-.52A9.647,9.647,0,0,0,98.3,98.991Z"/><path class="cls-3" d="M81.294,21.344C79.408,10.663,68.707,1.931,58.342.368c-11.941-1.8-20.97,3.1-28.089,12.45-6.172,8.1-9.828,19.706-4.989,29.41,3.1,6.212,8.412,7.3,14.707,8.675,4.4.959,3.851,2.164,1.761,6.009-1.657,3.049-3.724,5.753-5.5,8.7-5.34,8.846-5.653,19.676-3.2,29.625a41.426,41.426,0,0,0,2.333,9.087c1.659,4.2,5.507,5.257,9.74,4.736a19.793,19.793,0,0,0,11.627-6.355c3.916-4.162,3.309-7.529,2.419-12.784-1.134-6.694-4.152-14.379.178-20.523,1.462-2.074,3.3-3.94,4.961-5.858,2.361-2.725,3.833-5.645,5.963-8.524C74.035,49.894,76,43.61,78.659,37.863,81.146,32.491,82.347,27.309,81.294,21.344Z"/><path class="cls-1" d="M51.662,18.221a6.613,6.613,0,0,0-.441-2.205c.191-2.244-1.549-4.663-4.3-3.77a5.54,5.54,0,0,0-1.122.509,4.628,4.628,0,0,0-.86.425c-.018.011-.031.027-.049.039A3.6,3.6,0,0,0,43.349,14.6a3.458,3.458,0,0,0-.378.991,19.1,19.1,0,0,0-1.248,4.6c-.624,3.427-.425,7.027,2.933,8.933a3.613,3.613,0,0,0,4.276-.552c1.936-1.895,2.2-5.1,2.475-7.645.019-.18.031-.358.048-.538A10.61,10.61,0,0,0,51.662,18.221Z"/><path class="cls-5" d="M28.565,25.406a4.223,4.223,0,0,0-.968-.362,3.094,3.094,0,0,0-4.149.527c-7.9,8.5-17.9,13.294-23.011,24.177a3.671,3.671,0,0,0,.552,4.276C7.1,60.307,20.561,49.444,26.1,46.66c4.026-2.024,9.506-3.471,9.974-8.8C36.495,33.053,32.658,27.509,28.565,25.406Z"/></g></g></svg>