<svg xmlns="http://www.w3.org/2000/svg" viewBox="0 0 188.03 441.135"><defs><style>.cls-1{fill:#474761;}.cls-2{fill:#a7b5bd;}.cls-3{fill:#71667f;}.cls-4{fill:#323346;}.cls-5{fill:#bd8fa7;}</style></defs><title>Monkey</title><g id="Layer_2" data-name="Layer 2"><g id="Capa_3" data-name="Capa 3"><path class="cls-1" d="M93.584,12.377a13.023,13.023,0,0,0-16.7.837C67.641,2.942,56.594-1.593,42.749,2.334,32.366,5.279,17.717,14.606,14.736,25.967c-5.55-.507-10.188,1.472-12.909,7.675A20.611,20.611,0,0,0,5.4,56.125c4.741,4.988,12.515,8.314,19.364,6.028,9.02-3.01,4.124-10.918,2.814-17.514C24.384,28.546,37.6,11.7,54.7,15.058c15.856,3.117,23.065,14.954,22.958,30.3-.047,6.727,3.941,10.124,10.542,7.6,6.505-2.492,12.017-9.54,13.019-16.338C102.427,28.435,100.966,17.561,93.584,12.377Z"/><path class="cls-1" d="M187.963,333.765a180.845,180.845,0,0,0-6.682-40.842C177.306,278.308,170,265.04,165.67,250.579c-1.646-5.5-3.925-17.446-11.695-17.348-5.05.064-10.629,5.866-14.408,8.653-3.924,2.894-7.923,5.744-10.81,9.7-1.633,2.236.282,4.4,2.472,4.649,1.693,4.121,5.079,8.392,6.686,11.779a147.341,147.341,0,0,1,9.518,26.86c4.465,17.47,8.63,36.428,8.838,54.5.213,18.51-4.5,35.878-12.951,52.411-3.618,7.081-7.43,15.785-12.95,21.592-4.954,5.211-11.9,4.112-16.848,8.5a3.3,3.3,0,0,0-.508,3.935c4.366,8.253,18.494,5.15,25.284,2.367,11.312-4.637,20.592-11.579,27.5-21.68,8.483-12.4,13.264-26.256,16.5-40.793C185.34,362.055,188.535,347.843,187.963,333.765Z"/><path class="cls-2" d="M168.583,128.63a162.188,162.188,0,0,0-14.877-27.207c-6.049-8.859-12.863-16.464-19.43-24.831-6.29-8.015-13.57-10.685-22.372-15.565-7.392-4.1-13.717-6.55-21.664-6.867-.075,0-.14-.018-.217-.017-.106,0-.2.012-.31.015-.9-.026-1.811-.045-2.761-.015a3.356,3.356,0,0,0-1.332.309c-11.681,1.385-19.211,7.533-23.429,20.016-5.374,15.906,1.539,34.906,6.318,50.155,6.107,19.489,10.765,39.4,15.859,59.189,2.594,10.072,5.255,20.127,7.915,30.182,2.169,8.2,4.6,15.719,10.186,22.267,9.08,10.64,21.48,22.924,36.78,20.44,13.841-2.247,26.315-13.137,31.624-25.727C184.851,197.82,182.938,161.223,168.583,128.63Z"/><path class="cls-3" d="M131.857,209.112c-5.37-5.668-11.779-10.439-17.594-15.629-5.845-5.216-11.026-11.232-17.753-15.38-5.588-3.447-11.589-6.3-17.259-9.642-7.311-4.3-14.16-9.205-21.689-13.143-11.325-5.926-27.1-16.462-40.488-13.457C6.11,144.321,1.758,153.29,3.624,163.966a59.427,59.427,0,0,0,8.658,21.948c4.742,7.535,8.013,16.1,12.377,23.9a146.43,146.43,0,0,0,15.712,22.07c2.7,3.212,5.274,6.485,7.873,9.771,2.692,3.405,6.273,6.458,8.979,9.941-3.021,1.14-8.721.686-11.042.728-4.766.085-7.827.336-11.112,4.082a3.308,3.308,0,0,0,.657,5.1c5.834,4.03,14.653,4.2,21.451,4.085a67.217,67.217,0,0,0,11.944-1.666c4.827-.933,9.978-.767,14.734-1.87,5.294-1.228,7.257-5.18,5.407-10.311a55.146,55.146,0,0,0-5.087-10.053c3.123,2.534,6.256,5.055,9.448,7.5,7.681,5.881,20.125,15.958,30.524,15.238C151.651,262.522,145.091,223.078,131.857,209.112Z"/><path class="cls-3" d="M87.441,34.671C83.984,14.778,59.375,2.58,40.767,7.548c-19.186,5.121-23.21,34.5-14.679,49.873C30.75,65.82,39.6,72.512,48.166,76.466c5.229,2.416,12.469,6,17.836,2.787,6.643-.988,10.264-8.288,13.72-14.327C84.633,56.346,89.187,44.717,87.441,34.671Z"/><path class="cls-1" d="M124.566,139.671c-4.023-15.01-8.574-29.283-15.423-43.275-4.129-8.438-9.112-20.044-19.239-22.559a2.868,2.868,0,0,0-2.8-1.683c-5.457.1-11.725.927-14.758,6.065-3.8,6.446-3.047,17.441-2.2,24.43,1.587,13.152,6.339,25.966,12.109,37.986a53.388,53.388,0,0,0-6.04-3.771c-5.747-2.756-11.97-4.176-17.9-6.465-9.04-3.491-21.1-10.944-31.065-6.2-6.265,2.983-6.291,9.727-1.311,13.767,4.124,3.345,9.02,5.691,13.632,8.241,5.785,3.2,11.01,7.03,16.991,10,11.75,5.835,22.075,13.526,32.6,21.288a98.055,98.055,0,0,0,16.4,9.62c4.117,1.96,9.194,6.025,13.92,6.024C139.959,193.137,127.157,149.335,124.566,139.671Z"/><path class="cls-4" d="M42.553,48.986a7.549,7.549,0,0,0-.313-2.15A7.763,7.763,0,0,0,40.6,42.787a2.78,2.78,0,0,0-1.486-.774,2.307,2.307,0,0,0-3.272,2.2,8.161,8.161,0,0,0,.032,3.462A8.238,8.238,0,0,0,37.3,51.247a4.12,4.12,0,0,0,.974,1.565,2.207,2.207,0,0,0,3.093,0A5.051,5.051,0,0,0,42.553,48.986Z"/><path class="cls-1" d="M89.573,43.34c1.244-6.352-1.172-15.077-2.991-19.507-1.982-4.825-4.5-10.184-8.452-13.691a47.566,47.566,0,0,0-12.283-7.7C56.517-1.695,45.484-.1,36.294,3.71a22.278,22.278,0,0,0-10.312,8.1c-3.376,4.934-4.618,11.2-8.068,16-1.425,1.981,1.226,3.88,3.021,2.883a30.021,30.021,0,0,0-.9,4.438,64.413,64.413,0,0,0-.185,11.912c.307,4.241,2.183,8.1,2.452,12.311.179,2.8,4.553,2.815,4.373,0C26.336,54.1,24.138,49.339,24.125,44c-.017-6.461.68-12.253,3.4-18.182,1.881-4.1,5.844-12.223,11.006-12.758,4.516-.467,5.694,2.305,8.353,4.623a6.04,6.04,0,0,0,2.242,1.627c1.485.565,2.6-.85,2.768-2.108,2.117-15.992,17.937-3.815,23.488,2.664a27.132,27.132,0,0,1,6.531,13.4c.743,4.115.514,8.154.727,12.238a2.146,2.146,0,0,0-.394,1.213c-.061,2.154-.722,4.251-.972,6.39-.241,2.069,2.459,2.629,3.733,1.546a12.034,12.034,0,0,0,3.433-4.559c.268-.7.36-1.475.695-2.147a8.975,8.975,0,0,0,1.153-2.522A2.221,2.221,0,0,0,89.573,43.34Zm-59.217-29.9A16.791,16.791,0,0,1,34,9.844a3.059,3.059,0,0,0,.239.382A18.758,18.758,0,0,0,30.356,13.442Zm24.95-8.363A8.994,8.994,0,0,0,52.8,6.311,2.12,2.12,0,0,0,51.12,4.377a30.659,30.659,0,0,1,6.938.246A10.684,10.684,0,0,0,55.306,5.079Z"/><path class="cls-4" d="M73.74,40.632c-.469-1.788-1.614-2.859-2.532-4.38a2.255,2.255,0,0,0-2.469-1c-2.214.462-2.3,2.905-2,4.68a24.738,24.738,0,0,0,.594,2.471c.1.367.209.734.3,1.1.033.134.063.269.1.4l0,.009a2.148,2.148,0,0,0,2.487,2.073c.044.03.08.071.126.1a2.2,2.2,0,0,0,2.649-.341A5.454,5.454,0,0,0,73.74,40.632Z"/><path class="cls-5" d="M78.476,60.372a13.656,13.656,0,0,0-7.661-9.057c-4.389-2.079-8.3-1.469-12.608-.673a2.376,2.376,0,0,0-.471-.033c-7.928.236-16.483,8.562-14.671,17.027,1.744,8.149,12.242,13.719,20.118,11.91C71.6,77.612,80.523,69.872,78.476,60.372Z"/><path class="cls-5" d="M94.838,27.475c-1.777-4.559-4.058-10.253-10.016-8.492a2.252,2.252,0,0,0-1.606,2.108c-.153,3.139.878,6.29,1.837,9.384.322,1.674.693,3.333,1.072,4.94.575,2.441.96,5.674,1.991,8,1.538,3.471,5.473,3.078,6.726-.347A23.285,23.285,0,0,0,94.838,27.475Z"/><path class="cls-5" d="M17.11,47.551a47.46,47.46,0,0,1-1.678-12.083,1.973,1.973,0,0,0-1.156-1.879c-.8-2.362-2.537-4.466-5.247-3.07a2.035,2.035,0,0,0-.878,1,10.667,10.667,0,0,0-4.523,8.639c.195,4.552,3.382,10.684,6.89,13.456,2.4,1.9,6.711,3.468,7.581-.827C18.451,51.042,17.538,49.2,17.11,47.551Z"/><path class="cls-4" d="M55.976,59.117a2.068,2.068,0,0,1-.312-.069,1.381,1.381,0,0,0-.149-.05c-.127-.075-.26-.171-.326-.207a5.334,5.334,0,0,0-1.555-.611,2.237,2.237,0,0,0-2.689,1.528A2.212,2.212,0,0,0,52.472,62.4a1.95,1.95,0,0,1,.312.068q.342.121-.083-.045c.132-.011.44.237.559.3a5.386,5.386,0,0,0,1.553.614,2.187,2.187,0,0,0,1.163-4.217Z"/><path class="cls-4" d="M63.937,53.966a2.211,2.211,0,0,0-2.689,1.527,9.22,9.22,0,0,1-.522,1.738,9.137,9.137,0,0,0-.493,2.121,2.191,2.191,0,0,0,2.187,2.187,2.254,2.254,0,0,0,2.186-2.187c-.054.431.13-.372.157-.455.077-.238.168-.471.255-.7a7.981,7.981,0,0,0,.447-1.537A2.242,2.242,0,0,0,63.937,53.966Z"/><path class="cls-4" d="M130.681,96.094c-.283-1.856-1.464-3.392-2.406-4.955A3.827,3.827,0,1,0,121.667,95c.369.613.779,1.2,1.143,1.815.089.151.176.3.259.457.014.028.042.085.071.146s.031.09.037.113a4.671,4.671,0,0,1,.124.6,3.828,3.828,0,0,0,1.759,2.287,3.827,3.827,0,0,0,5.621-4.321Z"/><path class="cls-4" d="M146.87,101.477a4.15,4.15,0,0,0-2.705-1.121,3.893,3.893,0,0,0-2.706,1.121,3.849,3.849,0,0,0-1.121,2.706,3.747,3.747,0,0,0,1.089,2.67,3.827,3.827,0,0,0,3.748,3.176A3.886,3.886,0,0,0,149,106.2,6.181,6.181,0,0,0,146.87,101.477Z"/><path class="cls-4" d="M146.458,125.486c-.369-.612-.779-1.2-1.143-1.815-.09-.15-.177-.3-.259-.457-.014-.027-.042-.085-.071-.146-.016-.046-.031-.089-.037-.112a4.651,4.651,0,0,1-.124-.6,3.823,3.823,0,0,0-1.759-2.286,3.9,3.9,0,0,0-2.948-.386,3.943,3.943,0,0,0-2.673,4.707c.283,1.855,1.463,3.391,2.406,4.955a3.827,3.827,0,0,0,6.608-3.863Z"/><path class="cls-4" d="M162.106,132.9c0-.142.011-.284.028-.429a3.813,3.813,0,0,0-1.121-2.7,3.825,3.825,0,0,0-5.411,0,4.431,4.431,0,0,0-1.121,2.7,7.186,7.186,0,0,0,2.131,5.737,3.82,3.82,0,0,0,5.494-5.308Z"/><path class="cls-4" d="M160.6,159.833a3.827,3.827,0,0,0-6.608,3.863q.137.232.256.473c.029.064.045.1.063.135.047.183.085.382.1.426.032.126.06.253.083.382.006.035.009.045.013.068,0,.265-.021.562-.023.625a3.861,3.861,0,0,0,3.826,3.827,3.9,3.9,0,0,0,3.827-3.827A11.623,11.623,0,0,0,160.6,159.833Z"/><path class="cls-4" d="M151.236,182.183a3.893,3.893,0,0,0-3.826,3.827v6.061a3.826,3.826,0,0,0,7.652,0V186.01A3.87,3.87,0,0,0,151.236,182.183Z"/><path class="cls-4" d="M170.43,194.306a3.893,3.893,0,0,0-3.826,3.826v4.041a3.826,3.826,0,0,0,7.652,0v-4.041A3.869,3.869,0,0,0,170.43,194.306Z"/></g></g></svg>