<svg xmlns="http://www.w3.org/2000/svg" viewBox="0 0 114.331 276.324"><defs><style>.cls-1{fill:#d9a886;}.cls-2{fill:#cd5248;}.cls-3{fill:#323346;}</style></defs><title>RPanda</title><g id="Layer_2" data-name="Layer 2"><g id="Capa_3" data-name="Capa 3"><path class="cls-1" d="M102.685,90.209A35.528,35.528,0,0,0,93.3,79.165a13.687,13.687,0,0,0-3.9-2.373c1.133-1.872,2.123-3.816,3.123-5.42a80.081,80.081,0,0,0,10.51-25.432c1.625-7.278,2.342-13.62-.745-20.679C99.333,18.52,94.009,13.027,87.888,9.05c-6.6-4.288-13.89-6.1-21.612-7.083C57.307.821,48.187-.652,39.225,1.252c-16,3.4-28.085,16.762-30.86,32.881C6.771,43.391,6.251,53.967,10.007,62.8c3.683,8.665,10.454,13.58,17.549,18.877-9.537,14.466-6.528,33.593-6.39,50.1a287.551,287.551,0,0,0,1.92,31.808c1.269,10.524-1.158,21.2.369,31.749,1.432,9.89,1.113,20.009,2.208,29.961,1.132,10.28,3.179,20.13,5,30.265.778,4.339,2.664,17.88,8.961,18.5,6.977.685,5.9-12.255,6.372-15.92,1.14-8.924,1.15-18.221,1.7-27.211.258-4.25.172-9.254,2.536-13,3.417-5.414,11.8-6.3,16.91-2.918,7.925,5.239,8.861,17.674,10.6,26.136,1.888,9.21,4.014,19.665,8.33,28.1,1.876,3.667,6.134,8.87,10.761,6.47,5.029-2.609,4.656-11.477,4.667-16.156.048-22.24.066-44.367,1.055-66.551.55-12.333-.722-24.71.479-37.016,1.187-12.162,1.452-24.422,2.432-36.606C106.209,110.033,107.277,98.779,102.685,90.209Z"/><path class="cls-2" d="M55.285,170.075c-3.173-10.822-9.355-19.818-13.293-30.287a81.543,81.543,0,0,1-5.352-33.713c.273-6.229,1-12.338,1-18.605,0-3.127.544-7.188-1.735-9.745a6.307,6.307,0,0,0-9.521.73C20.474,81.208,17.455,91.846,15.372,96.9c-4.027,9.765-5.038,20.124-4.15,30.612,1.534,18.093,8.508,38.755,21.236,52.13,4.087,4.295,12.445,9.222,18.654,7.524C58.742,185.075,56.925,175.666,55.285,170.075Z"/><path class="cls-2" d="M114.112,103.32c-1.075-11.4-10.593-39.53-27.154-30.569a2.663,2.663,0,0,0-1.327,2.313c.084,4.805,2.256,9.447,2.163,14.158a2.382,2.382,0,0,0,.945,2.044c1.026,16.625.409,32.758-5.043,49.159-2.895,8.71-7.4,17.226-11.3,25.547-2,4.276-4.912,11.9.725,14.907,4.428,2.362,10.531-1.566,13.772-4.286,6.494-5.45,11.78-10.685,15.382-18.5,3.9-8.466,6.263-17.789,8.37-26.829C112.839,121.839,115.042,113.184,114.112,103.32Z"/><path class="cls-2" d="M50.108,25.55c-1.65-4.048-6.154-5.089-10.545-4.76a12.154,12.154,0,0,0-5.322.1A21.812,21.812,0,0,0,27.1,24.04,39.818,39.818,0,0,0,15.12,37.67c-1.8,3.559-3.8,8.4-2.331,12.4,1.643,4.477,7.074,5.325,11.244,5.537,11.1.566,25.44-8.664,26.528-20.335a14.9,14.9,0,0,0,.046-2.05A12.182,12.182,0,0,0,50.108,25.55Z"/><path class="cls-2" d="M93.077,39.815c-2.689-5.868-5.258-11.393-10.4-15.566-3.86-3.131-8.527-7.248-13.883-6.73a9.344,9.344,0,0,0-5.429,2.551c-9.314,3.075-5.116,16.037-.023,21.109,5.476,5.456,22.089,18.357,29.508,10.02C96.124,47.515,94.83,43.64,93.077,39.815Z"/><path class="cls-2" d="M15.193,2.054C6.934,1,1.789,7.152.371,14.69-.7,20.369.385,29.926,5.619,33.757a2.519,2.519,0,0,0,.732.967c2.474,2.068,5.531,2.278,7.171-.882.183-.352.357-.714.526-1.079,1.956-2.621,3.366-5.773,5.008-8.539,2.426-4.084,6.511-7.585,8.447-11.941C30.52,5.491,20.044,2.673,15.193,2.054Z"/><path class="cls-2" d="M109.844,15.491C106.807,7.325,97.583-2.535,87.97.594c-6.149,2-15.143,12.015-6.214,16.7A2.658,2.658,0,0,0,83.3,17.6a20.832,20.832,0,0,0,1.908,2.176c2.689,2.314,5.655,4.216,7.985,6.936,2.8,3.265,5.563,8.354,9.944,9.714C114.425,39.928,111.753,20.625,109.844,15.491Z"/><path class="cls-3" d="M39.257,29.12c-2.271-.623-4.053,1.365-4.495,3.387a13.614,13.614,0,0,0,.243,5.905A2.334,2.334,0,0,0,36.3,40.1c.051.044.089.093.144.136A3.31,3.31,0,0,0,41.488,39C42.934,36.2,43.02,30.154,39.257,29.12Z"/><path class="cls-3" d="M74.265,30.416A3.247,3.247,0,0,0,70.24,28.23a2.593,2.593,0,0,0-2.289,1.933c-.006.031-.013.062-.019.093-1.647,2.851-1.157,7.3,1.447,9.211a2.676,2.676,0,0,0,3.807-1.278c1.07-1.244,1.361-3.331,1.41-4.908A8.427,8.427,0,0,0,74.265,30.416Z"/><path class="cls-3" d="M61.448,55.273c-1.139-1.548-3.3-2-5.093-2.14-3.207-.243-7.75,0-9.535,3.322-1.01,1.88-.094,3.814,1.4,5.084a17.773,17.773,0,0,0,4.423,3.219,2.124,2.124,0,0,0,2.82-.961c1.935-.267,3.862-1.812,5.176-3.221C61.985,59.131,62.719,57,61.448,55.273Z"/></g></g></svg>